<svg xmlns="http://www.w3.org/2000/svg" viewBox="0 0 562.17 164.92"><defs><style>.cls-1,.cls-4{fill:none;stroke-width:8px;}.cls-1,.cls-2,.cls-3,.cls-4{stroke:#000;stroke-miterlimit:10;}.cls-2{stroke-width:2px;}.cls-3{stroke-width:4px;}.cls-4{stroke-linecap:round;}</style></defs><title>Asset 3</title><g id="Layer_2" data-name="Layer 2"><g id="Layer_1-2" data-name="Layer 1"><rect class="cls-1" x="63.19" y="127.92" width="49" height="33" rx="4.62" ry="4.62" transform="translate(175.38 288.85) rotate(-180)"/><path class="cls-1" d="M136.81,127.92h39.75a4.63,4.63,0,0,1,4.63,4.63V156.3a4.63,4.63,0,0,1-4.62,4.63H136.81a4.63,4.63,0,0,1-4.62-4.62V132.55A4.62,4.62,0,0,1,136.81,127.92Z"/><rect class="cls-2" x="112.19" y="135.92" width="20" height="4"/><rect class="cls-3" x="112.19" y="135.92" width="20" height="4"/><rect class="cls-3" x="180.7" y="132.48" width="25" height="4" rx="2" ry="2" transform="translate(-29.57 58.43) rotate(-15.99)"/><rect class="cls-3" x="38.67" y="132.48" width="25" height="4" rx="2" ry="2" transform="translate(63.32 277.86) rotate(-164.01)"/><path class="cls-4" d="M28,127.92a27.28,27.28,0,1,1,6.51-54.17"/><path class="cls-4" d="M27.44,72.67A31.24,31.24,0,0,1,79,38.56"/><path class="cls-4" d="M75.86,35.56a37.87,37.87,0,0,1,74.84,1.08"/><path class="cls-4" d="M148.4,27.9a25.43,25.43,0,0,1,45,22.55"/><path class="cls-4" d="M195.34,35.32a30.53,30.53,0,0,1,15.2,57.87"/><path class="cls-4" d="M224,80.21A25,25,0,0,1,220.86,128"/><path d="M293.27,126.33a5,5,0,0,1-1.49-3.77V41.31a5,5,0,0,1,1.49-3.77,5.52,5.52,0,0,1,4-1.43h48.62a5.26,5.26,0,0,1,3.64,1.17,4.17,4.17,0,0,1,1.3,3.25,4.17,4.17,0,0,1-1.3,3.25A5.26,5.26,0,0,1,345.86,45H302.31V76.8h40.95A5.26,5.26,0,0,1,346.9,78a4.71,4.71,0,0,1,0,6.5,5.26,5.26,0,0,1-3.64,1.17H302.31v33.28h43.55a5.49,5.49,0,0,1,3.64,1.1,4.8,4.8,0,0,1,0,6.57,5.26,5.26,0,0,1-3.64,1.17H297.24A5.52,5.52,0,0,1,293.27,126.33Z"/><path d="M367.37,127a4.9,4.9,0,0,1-1.49-3.83V40.66a4.92,4.92,0,0,1,1.49-3.84,5.47,5.47,0,0,1,3.84-1.36,5.28,5.28,0,0,1,3.7,1.36,4.93,4.93,0,0,1,1.5,3.84v82.55a4.91,4.91,0,0,1-1.5,3.83,5.29,5.29,0,0,1-3.7,1.37A5.47,5.47,0,0,1,367.37,127Z"/><path d="M397.53,127a4.91,4.91,0,0,1-1.5-3.83V40.66a4.93,4.93,0,0,1,1.5-3.84,5.44,5.44,0,0,1,3.83-1.36,5.29,5.29,0,0,1,3.71,1.36,5,5,0,0,1,1.49,3.84v82.55a4.93,4.93,0,0,1-1.49,3.83,5.3,5.3,0,0,1-3.71,1.37A5.45,5.45,0,0,1,397.53,127Z"/><path d="M426.45,47.68a6.27,6.27,0,0,1-1.95-4.81,6.1,6.1,0,0,1,1.95-4.68,8,8,0,0,1,10.14,0,6.1,6.1,0,0,1,2,4.68,6.27,6.27,0,0,1-2,4.81,8,8,0,0,1-10.14,0ZM427.69,127a4.91,4.91,0,0,1-1.5-3.83V68.35a4.93,4.93,0,0,1,1.5-3.84,5.44,5.44,0,0,1,3.83-1.36,5.22,5.22,0,0,1,3.77,1.36,5,5,0,0,1,1.43,3.84v54.86a5,5,0,0,1-1.43,3.9,6.08,6.08,0,0,1-7.6-.07Z"/><path d="M466.82,124.64a26.85,26.85,0,0,1-10.53-11.51,38.57,38.57,0,0,1-3.71-17.35,38.64,38.64,0,0,1,3.71-17.36,26.88,26.88,0,0,1,10.53-11.5,30.43,30.43,0,0,1,15.79-4,30.79,30.79,0,0,1,15.86,4,26.73,26.73,0,0,1,10.6,11.5,38.64,38.64,0,0,1,3.7,17.36,38.57,38.57,0,0,1-3.7,17.35,26.7,26.7,0,0,1-10.6,11.51,30.79,30.79,0,0,1-15.86,4A30.43,30.43,0,0,1,466.82,124.64ZM497,113.78q5-6.16,5-18,0-11.57-5.07-17.88t-14.3-6.3q-9.23,0-14.3,6.3t-5.07,17.88q0,11.7,5,17.94T482.61,120Q492,120,497,113.78Z"/><path d="M562.17,124.25a3.73,3.73,0,0,1-1.62,3.31,7.63,7.63,0,0,1-4.88.85l-3.51-.26q-10.39-.78-15.34-6.24t-4.94-16.51V72.77h-8.71a5,5,0,0,1-3.44-1.11,3.7,3.7,0,0,1-1.24-2.92,4.08,4.08,0,0,1,1.24-3.12,4.8,4.8,0,0,1,3.44-1.17h8.71V49.76a5.07,5.07,0,0,1,1.43-3.84,5.43,5.43,0,0,1,3.9-1.36A5.22,5.22,0,0,1,541,45.92a5,5,0,0,1,1.43,3.84V64.45h14.43a4.64,4.64,0,0,1,3.32,1.17,4.1,4.1,0,0,1,1.23,3.12,3.73,3.73,0,0,1-1.23,2.92,4.79,4.79,0,0,1-3.32,1.11H542.41v33.15q0,7.15,2.93,10.33t8.77,3.58l3.51.26C560.66,120.35,562.17,121.74,562.17,124.25Z"/></g></g></svg>